<svg xmlns="http://www.w3.org/2000/svg" xmlns:xlink="http://www.w3.org/1999/xlink" preserveAspectRatio="xMidYMid" width="20" height="20" viewBox="0 0 20 20">
  <defs>
    <style>

      .cls-2 {
        fill: #ffffff;
      }
    </style>
  </defs>
  <path d="M16.875,-0.000 C18.601,-0.000 20.000,1.399 20.000,3.125 C20.000,3.828 19.767,4.478 19.375,5.000 C19.375,5.000 18.125,6.250 18.125,6.250 C18.125,6.250 13.750,1.875 13.750,1.875 C13.750,1.875 15.000,0.625 15.000,0.625 C15.522,0.233 16.171,-0.000 16.875,-0.000 ZM1.250,14.375 C1.250,14.375 -0.000,20.000 -0.000,20.000 C-0.000,20.000 5.625,18.750 5.625,18.750 C5.625,18.750 17.187,7.187 17.187,7.187 C17.187,7.187 12.812,2.812 12.812,2.812 C12.812,2.812 1.250,14.375 1.250,14.375 ZM13.976,7.101 C13.976,7.101 5.226,15.851 5.226,15.851 C5.226,15.851 4.149,14.774 4.149,14.774 C4.149,14.774 12.899,6.024 12.899,6.024 C12.899,6.024 13.976,7.101 13.976,7.101 Z" id="path-1" class="cls-2" fill-rule="evenodd"/>
</svg>
